<mxfile host="65bd71144e" scale="10" border="0">
    <diagram id="sjhn6Tbte7zcKYGL0S5H" name="Page-1">
        <mxGraphModel dx="764" dy="543" grid="1" gridSize="10" guides="1" tooltips="1" connect="1" arrows="1" fold="1" page="1" pageScale="1" pageWidth="850" pageHeight="1100" background="#ffffff" math="0" shadow="0">
            <root>
                <mxCell id="0"/>
                <mxCell id="1" parent="0"/>
                <mxCell id="22" value="" style="rounded=0;whiteSpace=wrap;html=1;fillColor=#000000;fillStyle=hatch;opacity=20;" parent="1" vertex="1">
                    <mxGeometry x="260" y="50" width="440" height="280" as="geometry"/>
                </mxCell>
                <mxCell id="21" value="" style="rounded=0;whiteSpace=wrap;html=1;fillColor=#000000;fillStyle=solid;opacity=10;" parent="1" vertex="1">
                    <mxGeometry x="60" y="50" width="200" height="280" as="geometry"/>
                </mxCell>
                <mxCell id="4" value="produces" style="edgeStyle=none;html=1;exitX=0.5;exitY=1;exitDx=0;exitDy=0;entryX=0.5;entryY=0;entryDx=0;entryDy=0;fontSize=22;labelBackgroundColor=none;" parent="1" source="2" target="3" edge="1">
                    <mxGeometry x="-0.0824" y="50" relative="1" as="geometry">
                        <mxPoint as="offset"/>
                    </mxGeometry>
                </mxCell>
                <mxCell id="2" value="SDK&lt;br style=&quot;font-size: 22px;&quot;&gt;including compiler" style="rounded=0;whiteSpace=wrap;html=1;fontSize=22;" parent="1" vertex="1">
                    <mxGeometry x="67.5" y="120" width="185" height="60" as="geometry"/>
                </mxCell>
                <mxCell id="14" value="instantiate" style="edgeStyle=none;html=1;exitX=1;exitY=0.5;exitDx=0;exitDy=0;entryX=0;entryY=0.5;entryDx=0;entryDy=0;fontSize=20;labelBackgroundColor=none;" parent="1" source="3" target="5" edge="1">
                    <mxGeometry x="-0.0256" y="15" relative="1" as="geometry">
                        <mxPoint as="offset"/>
                    </mxGeometry>
                </mxCell>
                <mxCell id="3" value="Qoala program&lt;br style=&quot;font-size: 22px;&quot;&gt;(executable)" style="rounded=1;whiteSpace=wrap;html=1;fontSize=22;" parent="1" vertex="1">
                    <mxGeometry x="77.5" y="245" width="165" height="60" as="geometry"/>
                </mxCell>
                <mxCell id="16" value="produce&lt;br style=&quot;font-size: 20px;&quot;&gt;tasks" style="edgeStyle=none;html=1;exitX=1;exitY=0.5;exitDx=0;exitDy=0;fontSize=20;labelBackgroundColor=none;" parent="1" source="5" edge="1">
                    <mxGeometry x="0.1391" y="2" relative="1" as="geometry">
                        <mxPoint x="526" y="276" as="targetPoint"/>
                        <mxPoint as="offset"/>
                    </mxGeometry>
                </mxCell>
                <mxCell id="5" value="Program Instance" style="rounded=1;whiteSpace=wrap;html=1;strokeColor=default;fontSize=22;" parent="1" vertex="1">
                    <mxGeometry x="340" y="245" width="100" height="60" as="geometry"/>
                </mxCell>
                <mxCell id="6" value="Task" style="rounded=1;whiteSpace=wrap;html=1;fontSize=22;" parent="1" vertex="1">
                    <mxGeometry x="555" y="240" width="50" height="30" as="geometry"/>
                </mxCell>
                <mxCell id="19" style="edgeStyle=none;html=1;exitX=0.25;exitY=0;exitDx=0;exitDy=0;entryX=0.75;entryY=1;entryDx=0;entryDy=0;" parent="1" source="7" target="17" edge="1">
                    <mxGeometry relative="1" as="geometry"/>
                </mxCell>
                <mxCell id="20" style="edgeStyle=none;html=1;exitX=0.75;exitY=0;exitDx=0;exitDy=0;" parent="1" source="7" target="18" edge="1">
                    <mxGeometry relative="1" as="geometry"/>
                </mxCell>
                <mxCell id="26" value="pick" style="edgeStyle=none;html=1;exitX=0.5;exitY=1;exitDx=0;exitDy=0;fontSize=20;labelBackgroundColor=none;" parent="1" source="7" edge="1">
                    <mxGeometry x="-0.1111" y="22" relative="1" as="geometry">
                        <mxPoint x="610" y="234" as="targetPoint"/>
                        <mxPoint x="595" y="200" as="sourcePoint"/>
                        <mxPoint as="offset"/>
                    </mxGeometry>
                </mxCell>
                <mxCell id="7" value="Scheduler" style="rounded=0;whiteSpace=wrap;html=1;fontSize=22;" parent="1" vertex="1">
                    <mxGeometry x="555" y="140" width="110" height="40" as="geometry"/>
                </mxCell>
                <mxCell id="8" value="Task" style="rounded=1;whiteSpace=wrap;html=1;fontSize=22;" parent="1" vertex="1">
                    <mxGeometry x="615" y="240" width="50" height="30" as="geometry"/>
                </mxCell>
                <mxCell id="9" value="Task" style="rounded=1;whiteSpace=wrap;html=1;fontSize=22;" parent="1" vertex="1">
                    <mxGeometry x="555" y="280" width="50" height="30" as="geometry"/>
                </mxCell>
                <mxCell id="10" value="Task" style="rounded=1;whiteSpace=wrap;html=1;fontSize=22;" parent="1" vertex="1">
                    <mxGeometry x="615" y="280" width="50" height="30" as="geometry"/>
                </mxCell>
                <mxCell id="11" value="" style="shape=curlyBracket;whiteSpace=wrap;html=1;rounded=1;labelPosition=left;verticalLabelPosition=middle;align=right;verticalAlign=middle;" parent="1" vertex="1">
                    <mxGeometry x="530" y="230" width="20" height="90" as="geometry"/>
                </mxCell>
                <mxCell id="13" value="" style="shape=curlyBracket;whiteSpace=wrap;html=1;rounded=1;flipH=1;labelPosition=right;verticalLabelPosition=middle;align=left;verticalAlign=middle;" parent="1" vertex="1">
                    <mxGeometry x="672.5" y="230" width="20" height="90" as="geometry"/>
                </mxCell>
                <mxCell id="17" value="CPS" style="rounded=0;whiteSpace=wrap;html=1;fontSize=22;" parent="1" vertex="1">
                    <mxGeometry x="520" y="55" width="50" height="40" as="geometry"/>
                </mxCell>
                <mxCell id="18" value="QPS" style="rounded=0;whiteSpace=wrap;html=1;fontSize=22;" parent="1" vertex="1">
                    <mxGeometry x="640" y="55" width="52.5" height="40" as="geometry"/>
                </mxCell>
                <mxCell id="23" value="Offline&lt;br&gt;(ahead-of-time)" style="text;html=1;strokeColor=none;fillColor=none;align=center;verticalAlign=middle;whiteSpace=wrap;rounded=0;fontSize=22;fontStyle=1" parent="1" vertex="1">
                    <mxGeometry x="60" y="65" width="200" height="30" as="geometry"/>
                </mxCell>
                <mxCell id="24" value="Runtime" style="text;html=1;strokeColor=none;fillColor=none;align=center;verticalAlign=middle;whiteSpace=wrap;rounded=0;fontSize=22;fontStyle=1" parent="1" vertex="1">
                    <mxGeometry x="275" y="56" width="130" height="30" as="geometry"/>
                </mxCell>
                <mxCell id="27" value="execute tasks" style="text;html=1;strokeColor=none;fillColor=none;align=center;verticalAlign=middle;whiteSpace=wrap;rounded=0;fontSize=20;" parent="1" vertex="1">
                    <mxGeometry x="570" y="100" width="75" height="30" as="geometry"/>
                </mxCell>
            </root>
        </mxGraphModel>
    </diagram>
</mxfile>